<mxfile host="app.diagrams.net" modified="2024-06-02T17:04:18.838Z" agent="Mozilla/5.0 (Windows NT 10.0; Win64; x64) AppleWebKit/537.36 (KHTML, like Gecko) Chrome/125.0.0.0 Safari/537.36 Edg/125.0.0.0" version="24.4.13" etag="f-4Y2l4hh5o9jI1Qe-fq" type="github">
  <diagram name="PÃ¡gina-1" id="u15YtqqxpdfMN7vL7RXU">
    <mxGraphModel>
      <root>
        <mxCell id="0" />
        <mxCell id="1" parent="0" />
      </root>
    </mxGraphModel>
  </diagram>
</mxfile>
